<svg width="1240" height="1040" viewBox="0 0 1240 1040" xmlns="http://www.w3.org/2000/svg">
<defs>
  <marker id="ah" viewBox="0 0 10 10" refX="8" refY="5" markerWidth="6" markerHeight="6" orient="auto-start-reverse">
    <path d="M2 1L8 5L2 9" fill="none" stroke="#7a8090" stroke-width="1.6"/>
  </marker>
</defs>
<style>
  .b{stroke-width:1.2}
  .th{font:600 13px sans-serif;fill:#fff}
  .tp{font:10.5px monospace;fill:#c9ccd1}
  .grp{font:700 11px sans-serif;fill:#9aa1ac;letter-spacing:.05em}
  .arr{stroke:#5a6070;stroke-width:1.4;fill:none}
  .arrlbl{font:9.5px monospace;fill:#8a8fa0}
</style>

<rect x="0" y="0" width="1240" height="1040" fill="#0f1115"/>

<!-- Client -->
<rect class="b" x="510" y="10" width="220" height="50" rx="8" fill="#2a2413" stroke="#a3841f"/>
<text class="th" x="620" y="30" text-anchor="middle">Client</text>
<text class="tp" x="620" y="46" text-anchor="middle">browser / curl / Postman</text>

<line class="arr" x1="620" y1="60" x2="620" y2="90" marker-end="url(#ah)"/>
<text class="arrlbl" x="628" y="78">HTTP :80</text>

<!-- Nginx -->
<rect class="b" x="510" y="92" width="220" height="54" rx="8" fill="#1c1e24" stroke="#565c66"/>
<text class="th" x="620" y="112" text-anchor="middle">Nginx</text>
<text class="tp" x="620" y="130" text-anchor="middle">nginx.conf</text>

<line class="arr" x1="620" y1="146" x2="620" y2="176" marker-end="url(#ah)"/>
<text class="arrlbl" x="628" y="164">proxy_pass :8000</text>

<!-- FastAPI outer container -->
<rect x="60" y="178" width="1120" height="460" rx="14" fill="none" stroke="#3a3f4a" stroke-width="1" stroke-dasharray="6,4"/>
<text class="grp" x="80" y="200">FASTAPI APPLICATION — src/app/</text>

<rect class="b" x="520" y="216" width="200" height="54" rx="8" fill="#132433" stroke="#2e6ca8"/>
<text class="th" x="620" y="236" text-anchor="middle">main.py</text>
<text class="tp" x="620" y="254" text-anchor="middle">app, lifespan, routers</text>

<rect class="b" x="760" y="216" width="220" height="54" rx="8" fill="#132433" stroke="#2e6ca8"/>
<text class="th" x="870" y="236" text-anchor="middle">middleware/correlation.py</text>
<text class="tp" x="870" y="254" text-anchor="middle">X-Correlation-ID per request</text>

<line class="arr" x1="620" y1="270" x2="620" y2="300" marker-end="url(#ah)"/>

<text class="grp" x="90" y="296">ROUTES</text>
<rect class="b" x="90" y="304" width="200" height="60" rx="8" fill="#132433" stroke="#2e6ca8"/>
<text class="th" x="190" y="322" text-anchor="middle">routes/auth.py</text>
<text class="tp" x="190" y="338" text-anchor="middle">/register /login</text>
<text class="tp" x="190" y="352" text-anchor="middle">/refresh /logout</text>

<rect class="b" x="310" y="304" width="200" height="60" rx="8" fill="#132433" stroke="#2e6ca8"/>
<text class="th" x="410" y="322" text-anchor="middle">routes/minutes.py</text>
<text class="tp" x="410" y="338" text-anchor="middle">upload / get / status</text>
<text class="tp" x="410" y="352" text-anchor="middle">list / delete</text>

<rect class="b" x="530" y="304" width="200" height="60" rx="8" fill="#132433" stroke="#2e6ca8"/>
<text class="th" x="630" y="322" text-anchor="middle">routes/admin.py</text>
<text class="tp" x="630" y="338" text-anchor="middle">/stats</text>
<text class="tp" x="630" y="352" text-anchor="middle">/model/switch</text>

<rect class="b" x="750" y="304" width="200" height="60" rx="8" fill="#132433" stroke="#2e6ca8"/>
<text class="th" x="850" y="322" text-anchor="middle">routes/health.py</text>
<text class="tp" x="850" y="338" text-anchor="middle">GET /health</text>
<text class="tp" x="850" y="352" text-anchor="middle">DB + Redis ping</text>

<line class="arr" x1="620" y1="364" x2="620" y2="394" marker-end="url(#ah)"/>

<text class="grp" x="90" y="390">CORE</text>
<rect class="b" x="90" y="398" width="200" height="60" rx="8" fill="#132433" stroke="#2e6ca8"/>
<text class="th" x="190" y="416" text-anchor="middle">core/security.py</text>
<text class="tp" x="190" y="432" text-anchor="middle">bcrypt hash/verify</text>
<text class="tp" x="190" y="446" text-anchor="middle">JWT create/decode</text>

<rect class="b" x="310" y="398" width="200" height="60" rx="8" fill="#132433" stroke="#2e6ca8"/>
<text class="th" x="410" y="416" text-anchor="middle">core/dependencies.py</text>
<text class="tp" x="410" y="432" text-anchor="middle">get_current_user</text>
<text class="tp" x="410" y="446" text-anchor="middle">get_current_admin</text>

<rect class="b" x="530" y="398" width="200" height="60" rx="8" fill="#2b1614" stroke="#96332a"/>
<text class="th" x="630" y="416" text-anchor="middle">core/cache.py</text>
<text class="tp" x="630" y="432" text-anchor="middle">get/set/delete_cache</text>
<text class="tp" x="630" y="446" text-anchor="middle">redis_client (aioredis)</text>

<rect class="b" x="750" y="398" width="200" height="60" rx="8" fill="#132433" stroke="#2e6ca8"/>
<text class="th" x="850" y="416" text-anchor="middle">core/logging.py</text>
<text class="tp" x="850" y="432" text-anchor="middle">JSONFormatter</text>
<text class="tp" x="850" y="446" text-anchor="middle">ISO-8601 timestamps</text>

<line class="arr" x1="190" y1="458" x2="190" y2="490" marker-end="url(#ah)"/>
<line class="arr" x1="630" y1="458" x2="630" y2="490" marker-end="url(#ah)"/>

<text class="grp" x="90" y="486">CONFIG / MODELS / DB</text>
<rect class="b" x="90" y="494" width="200" height="60" rx="8" fill="#132433" stroke="#2e6ca8"/>
<text class="th" x="190" y="512" text-anchor="middle">config.py</text>
<text class="tp" x="190" y="528" text-anchor="middle">Settings(BaseSettings)</text>
<text class="tp" x="190" y="542" text-anchor="middle">.env → validated fields</text>

<rect class="b" x="310" y="494" width="200" height="60" rx="8" fill="#2b2013" stroke="#a86a24"/>
<text class="th" x="410" y="512" text-anchor="middle">models.py</text>
<text class="tp" x="410" y="528" text-anchor="middle">User, MeetingMinutes,</text>
<text class="tp" x="410" y="542" text-anchor="middle">Task, GUID type</text>

<rect class="b" x="530" y="494" width="200" height="60" rx="8" fill="#2b2013" stroke="#a86a24"/>
<text class="th" x="630" y="512" text-anchor="middle">db/session.py</text>
<text class="tp" x="630" y="528" text-anchor="middle">create_async_engine</text>
<text class="tp" x="630" y="542" text-anchor="middle">get_db() dependency</text>

<rect class="b" x="750" y="494" width="200" height="60" rx="8" fill="#2b2013" stroke="#a86a24"/>
<text class="th" x="850" y="512" text-anchor="middle">db/search.py</text>
<text class="tp" x="850" y="528" text-anchor="middle">to_tsvector GIN index</text>
<text class="tp" x="850" y="542" text-anchor="middle">full-text search query</text>

<line class="arr" x1="190" y1="554" x2="190" y2="612" marker-end="url(#ah)"/>
<line class="arr" x1="630" y1="554" x2="240" y2="612" marker-end="url(#ah)"/>

<rect class="b" x="90" y="590" width="200" height="60" rx="8" fill="#1c1e24" stroke="#565c66"/>
<text class="th" x="190" y="608" text-anchor="middle">alembic/env.py</text>
<text class="tp" x="190" y="624" text-anchor="middle">migrations, reads</text>
<text class="tp" x="190" y="638" text-anchor="middle">settings.DATABASE_URL</text>

<rect x="770" y="590" width="380" height="130" rx="12" fill="none" stroke="#65478a" stroke-width="1" stroke-dasharray="5,3"/>
<text class="grp" x="785" y="608" style="fill:#b795dd">CELERY WORKER (separate process)</text>

<rect class="b" x="790" y="616" width="160" height="56" rx="8" fill="#211a2b" stroke="#65478a"/>
<text class="th" x="870" y="634" text-anchor="middle">celery_app.py</text>
<text class="tp" x="870" y="650" text-anchor="middle">include=[tasks]</text>

<rect class="b" x="970" y="616" width="160" height="56" rx="8" fill="#211a2b" stroke="#65478a"/>
<text class="th" x="1050" y="634" text-anchor="middle">tasks/summarize.py</text>
<text class="tp" x="1050" y="650" text-anchor="middle">sync engine + task</text>

<rect class="b" x="880" y="686" width="160" height="26" rx="6" fill="#211a2b" stroke="#65478a"/>
<text class="tp" x="960" y="703" text-anchor="middle">services/summarizer.py</text>

<line class="arr" x1="850" y1="554" x2="870" y2="616" marker-end="url(#ah)"/>
<text class="arrlbl" x="700" y="590">enqueue task</text>

<line class="arr" x1="960" y1="672" x2="960" y2="686" marker-end="url(#ah)"/>
<line class="arr" x1="880" y1="699" x2="410" y2="620" marker-end="url(#ah)"/>
<text class="arrlbl" x="640" y="710">write result</text>

<rect class="b" x="130" y="760" width="240" height="70" rx="8" fill="#2b2013" stroke="#a86a24" stroke-width="1.6"/>
<text class="th" x="250" y="782" text-anchor="middle">PostgreSQL 15</text>
<text class="tp" x="250" y="800" text-anchor="middle">users · meeting_minutes · tasks</text>
<text class="tp" x="250" y="815" text-anchor="middle">GIN full-text index</text>

<rect class="b" x="470" y="760" width="220" height="70" rx="8" fill="#2b1614" stroke="#96332a" stroke-width="1.6"/>
<text class="th" x="580" y="782" text-anchor="middle">Redis 7</text>
<text class="tp" x="580" y="800" text-anchor="middle">db0 cache · db1 broker</text>
<text class="tp" x="580" y="815" text-anchor="middle">db2 result backend</text>

<rect class="b" x="920" y="760" width="220" height="70" rx="8" fill="#122a20" stroke="#25835a" stroke-dasharray="5,3" stroke-width="1.6"/>
<text class="th" x="1030" y="782" text-anchor="middle">HuggingFace API</text>
<text class="tp" x="1030" y="800" text-anchor="middle">facebook/bart-large-cnn</text>
<text class="tp" x="1030" y="815" text-anchor="middle">external, network call</text>

<line class="arr" x1="190" y1="650" x2="250" y2="760" marker-end="url(#ah)"/>
<line class="arr" x1="630" y1="554" x2="580" y2="760" marker-end="url(#ah)"/>
<line class="arr" x1="960" y1="712" x2="1030" y2="760" marker-end="url(#ah)"/>

<rect x="60" y="870" width="1120" height="150" rx="12" fill="#15171d" stroke="#2a2f3a"/>
<text class="grp" x="80" y="894">CI/CD &amp; DEPLOYMENT (outside the request path)</text>

<rect class="b" x="90" y="908" width="200" height="60" rx="8" fill="#1c1e24" stroke="#565c66"/>
<text class="th" x="190" y="928" text-anchor="middle">.github/workflows/ci.yml</text>
<text class="tp" x="190" y="946" text-anchor="middle">ruff → alembic → pytest</text>

<rect class="b" x="330" y="908" width="200" height="60" rx="8" fill="#1c1e24" stroke="#565c66"/>
<text class="th" x="430" y="928" text-anchor="middle">Dockerfile</text>
<text class="tp" x="430" y="946" text-anchor="middle">python:3.11-slim</text>
<text class="tp" x="430" y="960" text-anchor="middle">PYTHONPATH=/app/src</text>

<rect class="b" x="570" y="908" width="220" height="60" rx="8" fill="#1c1e24" stroke="#565c66"/>
<text class="th" x="680" y="928" text-anchor="middle">docker-compose.yml</text>
<text class="tp" x="680" y="946" text-anchor="middle">+ docker-compose.prod.yml</text>
<text class="tp" x="680" y="960" text-anchor="middle">5 services, restart policy</text>

<rect class="b" x="830" y="908" width="180" height="60" rx="8" fill="#1c1e24" stroke="#565c66"/>
<text class="th" x="920" y="928" text-anchor="middle">AWS EC2</text>
<text class="tp" x="920" y="946" text-anchor="middle">t2.micro, Docker Compose</text>

<rect class="b" x="1030" y="908" width="130" height="60" rx="8" fill="#1c1e24" stroke="#565c66"/>
<text class="th" x="1095" y="928" text-anchor="middle">Render</text>
<text class="tp" x="1095" y="946" text-anchor="middle">free tier, API only</text>

</svg>
